<mxfile modified="2023-09-23T15:28:23.405Z" host="app.diagrams.net" agent="Mozilla/5.0 (Windows NT 10.0; Win64; x64) AppleWebKit/537.36 (KHTML, like Gecko) Chrome/117.0.0.0 Safari/537.36 Edg/117.0.2045.36" etag="dPeRMk44bVSuBqpvyBCK" version="21.8.1" type="github">
  <diagram id="Ht1M8jgEwFfnCIfOTk4-" name="Page-1">
    <mxGraphModel dx="1155" dy="693" grid="1" gridSize="10" guides="1" tooltips="1" connect="1" arrows="1" fold="1" page="1" pageScale="1" pageWidth="1169" pageHeight="827" math="0" shadow="0">
      <root>
        <mxCell id="0" />
        <mxCell id="1" parent="0" />
        <mxCell id="JB2YJQ7nlF4_92oqd34S-10" style="edgeStyle=orthogonalEdgeStyle;rounded=0;orthogonalLoop=1;jettySize=auto;html=1;curved=1;dashed=1;" edge="1" parent="1" source="JB2YJQ7nlF4_92oqd34S-1" target="JB2YJQ7nlF4_92oqd34S-2">
          <mxGeometry relative="1" as="geometry">
            <Array as="points">
              <mxPoint x="560" y="530" />
              <mxPoint x="560" y="530" />
            </Array>
          </mxGeometry>
        </mxCell>
        <mxCell id="JB2YJQ7nlF4_92oqd34S-1" value="&lt;font color=&quot;#000000&quot;&gt;Dispositivos&lt;/font&gt;" style="sketch=0;outlineConnect=0;gradientColor=none;fontColor=#545B64;strokeColor=none;fillColor=#000000;dashed=0;verticalLabelPosition=bottom;verticalAlign=top;align=center;html=1;fontSize=12;fontStyle=0;aspect=fixed;shape=mxgraph.aws4.illustration_devices;pointerEvents=1" vertex="1" parent="1">
          <mxGeometry x="535" y="580" width="100" height="73" as="geometry" />
        </mxCell>
        <mxCell id="JB2YJQ7nlF4_92oqd34S-14" style="edgeStyle=orthogonalEdgeStyle;rounded=0;orthogonalLoop=1;jettySize=auto;html=1;dashed=1;" edge="1" parent="1">
          <mxGeometry relative="1" as="geometry">
            <mxPoint x="607" y="448" as="sourcePoint" />
            <mxPoint x="607" y="580.1285563067336" as="targetPoint" />
          </mxGeometry>
        </mxCell>
        <mxCell id="JB2YJQ7nlF4_92oqd34S-2" value="" style="sketch=0;outlineConnect=0;fontColor=#232F3E;gradientColor=none;fillColor=#232F3D;strokeColor=none;dashed=0;verticalLabelPosition=bottom;verticalAlign=top;align=center;html=1;fontSize=12;fontStyle=0;aspect=fixed;pointerEvents=1;shape=mxgraph.aws4.internet;" vertex="1" parent="1">
          <mxGeometry x="546" y="400" width="78" height="48" as="geometry" />
        </mxCell>
        <mxCell id="JB2YJQ7nlF4_92oqd34S-7" style="edgeStyle=orthogonalEdgeStyle;rounded=0;orthogonalLoop=1;jettySize=auto;html=1;curved=1;dashed=1;" edge="1" parent="1" source="JB2YJQ7nlF4_92oqd34S-3" target="JB2YJQ7nlF4_92oqd34S-2">
          <mxGeometry relative="1" as="geometry">
            <Array as="points">
              <mxPoint x="410" y="424" />
            </Array>
          </mxGeometry>
        </mxCell>
        <mxCell id="JB2YJQ7nlF4_92oqd34S-3" value="" style="sketch=0;outlineConnect=0;fontColor=#232F3E;gradientColor=none;fillColor=#232F3D;strokeColor=none;dashed=0;verticalLabelPosition=bottom;verticalAlign=top;align=center;html=1;fontSize=12;fontStyle=0;aspect=fixed;pointerEvents=1;shape=mxgraph.aws4.generic_database;" vertex="1" parent="1">
          <mxGeometry x="380" y="240" width="59" height="78" as="geometry" />
        </mxCell>
        <mxCell id="JB2YJQ7nlF4_92oqd34S-8" style="edgeStyle=orthogonalEdgeStyle;rounded=0;orthogonalLoop=1;jettySize=auto;html=1;curved=1;dashed=1;" edge="1" parent="1" source="JB2YJQ7nlF4_92oqd34S-4" target="JB2YJQ7nlF4_92oqd34S-2">
          <mxGeometry relative="1" as="geometry" />
        </mxCell>
        <mxCell id="JB2YJQ7nlF4_92oqd34S-4" value="" style="sketch=0;outlineConnect=0;fontColor=#232F3E;gradientColor=none;fillColor=#232F3D;strokeColor=none;dashed=0;verticalLabelPosition=bottom;verticalAlign=top;align=center;html=1;fontSize=12;fontStyle=0;aspect=fixed;pointerEvents=1;shape=mxgraph.aws4.traditional_server;" vertex="1" parent="1">
          <mxGeometry x="562" y="240" width="45" height="78" as="geometry" />
        </mxCell>
        <mxCell id="JB2YJQ7nlF4_92oqd34S-9" style="edgeStyle=orthogonalEdgeStyle;rounded=0;orthogonalLoop=1;jettySize=auto;html=1;curved=1;dashed=1;" edge="1" parent="1" source="JB2YJQ7nlF4_92oqd34S-5" target="JB2YJQ7nlF4_92oqd34S-2">
          <mxGeometry relative="1" as="geometry">
            <Array as="points">
              <mxPoint x="748" y="430" />
            </Array>
          </mxGeometry>
        </mxCell>
        <mxCell id="JB2YJQ7nlF4_92oqd34S-5" value="" style="sketch=0;outlineConnect=0;fontColor=#232F3E;gradientColor=none;fillColor=#232F3D;strokeColor=none;dashed=0;verticalLabelPosition=bottom;verticalAlign=top;align=center;html=1;fontSize=12;fontStyle=0;aspect=fixed;pointerEvents=1;shape=mxgraph.aws4.source_code;" vertex="1" parent="1">
          <mxGeometry x="720" y="240" width="57" height="78" as="geometry" />
        </mxCell>
        <mxCell id="JB2YJQ7nlF4_92oqd34S-15" value="CÃ³digo Fonte" style="text;html=1;strokeColor=none;fillColor=none;align=center;verticalAlign=middle;whiteSpace=wrap;rounded=0;" vertex="1" parent="1">
          <mxGeometry x="670" y="210" width="157" height="30" as="geometry" />
        </mxCell>
        <mxCell id="JB2YJQ7nlF4_92oqd34S-16" value="Banco de dados" style="text;html=1;strokeColor=none;fillColor=none;align=center;verticalAlign=middle;whiteSpace=wrap;rounded=0;" vertex="1" parent="1">
          <mxGeometry x="360" y="210" width="99" height="30" as="geometry" />
        </mxCell>
        <mxCell id="JB2YJQ7nlF4_92oqd34S-17" value="Servidor" style="text;html=1;strokeColor=none;fillColor=none;align=center;verticalAlign=middle;whiteSpace=wrap;rounded=0;" vertex="1" parent="1">
          <mxGeometry x="555" y="210" width="60" height="30" as="geometry" />
        </mxCell>
      </root>
    </mxGraphModel>
  </diagram>
</mxfile>
